<svg xmlns="http://www.w3.org/2000/svg" width="102" height="44" viewBox="0 0 102 44">
  <g id="Grupo_157012" data-name="Grupo 157012" transform="translate(-248.861 -112.813)">
    <path id="Unión_5" data-name="Unión 5" d="M0,44V0H80.2L102,22,80.2,44Z" transform="translate(248.861 112.813)" fill="#fc5f65"/>
    <path id="Trazado_131780" data-name="Trazado 131780" d="M-28.9,0h-9.809V-18.905h2.215V-2H-28.9Zm13.46-6.209H-24.97a5.049,5.049,0,0,0,1.213,3.48A4.181,4.181,0,0,0-20.566-1.5a6.633,6.633,0,0,0,4.192-1.5v2.03A7.835,7.835,0,0,1-21.081.316a5.706,5.706,0,0,1-4.5-1.839A7.528,7.528,0,0,1-27.211-6.7a7.382,7.382,0,0,1,1.786-5.135,5.728,5.728,0,0,1,4.436-1.984,5.075,5.075,0,0,1,4.1,1.714,7.146,7.146,0,0,1,1.45,4.759Zm-2.215-1.833a4.4,4.4,0,0,0-.9-2.914A3.077,3.077,0,0,0-21.028-12a3.493,3.493,0,0,0-2.6,1.094,4.966,4.966,0,0,0-1.318,2.861Zm16.1-5.458L-6.935,0H-9.057l-5.115-13.5H-11.8l3.428,9.809A8.8,8.8,0,0,1-7.9-1.806h.053a8.915,8.915,0,0,1,.422-1.833L-3.836-13.5Zm13.17,7.291H2.083A5.049,5.049,0,0,0,3.3-2.729,4.181,4.181,0,0,0,6.486-1.5a6.633,6.633,0,0,0,4.192-1.5v2.03A7.835,7.835,0,0,1,5.972.316a5.706,5.706,0,0,1-4.5-1.839A7.528,7.528,0,0,1-.158-6.7a7.382,7.382,0,0,1,1.786-5.135,5.728,5.728,0,0,1,4.436-1.984,5.075,5.075,0,0,1,4.1,1.714,7.146,7.146,0,0,1,1.45,4.759ZM9.4-8.042a4.4,4.4,0,0,0-.9-2.914A3.077,3.077,0,0,0,6.025-12a3.493,3.493,0,0,0-2.6,1.094A4.966,4.966,0,0,0,2.109-8.042ZM17.046,0H14.884V-19.986h2.162ZM36.809-13.948a3.909,3.909,0,0,0-.27-1.516,3,3,0,0,0-.738-1.074,3.025,3.025,0,0,0-1.1-.639,4.311,4.311,0,0,0-1.371-.211,4.535,4.535,0,0,0-1.239.171,6.025,6.025,0,0,0-1.18.475,7.258,7.258,0,0,0-1.107.725,8,8,0,0,0-1,.936V-17.4a6.464,6.464,0,0,1,2.037-1.351,7.172,7.172,0,0,1,2.749-.468,6.636,6.636,0,0,1,2.149.336,4.927,4.927,0,0,1,1.714.982,4.54,4.54,0,0,1,1.14,1.6,5.38,5.38,0,0,1,.415,2.175,7.459,7.459,0,0,1-.257,2.03,6.279,6.279,0,0,1-.778,1.714,8.27,8.27,0,0,1-1.312,1.542,18.581,18.581,0,0,1-1.859,1.5q-1.332.949-2.2,1.622a9.7,9.7,0,0,0-1.371,1.259,3.654,3.654,0,0,0-.712,1.173,4.1,4.1,0,0,0-.2,1.351h9.413V0H28.068V-.936a7.8,7.8,0,0,1,.264-2.136,5.546,5.546,0,0,1,.87-1.753A9.731,9.731,0,0,1,30.79-6.486q.982-.831,2.406-1.872a15.211,15.211,0,0,0,1.72-1.411,7.334,7.334,0,0,0,1.114-1.345,4.829,4.829,0,0,0,.6-1.365A5.883,5.883,0,0,0,36.809-13.948Z" transform="translate(290.861 142.813)" fill="#fff"/>
  </g>
</svg>
